<svg width="24" height="24" viewBox="0 0 24 24" fill="none" xmlns="http://www.w3.org/2000/svg">
<g clip-path="url(#clip0)">
<path d="M13.5001 11.9998C15.9746 11.9998 18.1609 9.66959 18.3751 6.80507C18.4815 5.366 18.0301 4.02397 17.1039 3.02694C16.1875 2.0421 14.9064 1.49976 13.5001 1.49976C12.0826 1.49976 10.8006 2.03882 9.89074 3.01757C8.97059 4.0071 8.52199 5.35194 8.62512 6.80413C8.83559 9.66913 11.0214 11.9998 13.5001 11.9998Z" fill="black"/>
<path d="M23.221 20.6125C22.8253 18.4178 21.5902 16.5742 19.6495 15.2805C17.926 14.1316 15.7421 13.4988 13.5 13.4988C11.258 13.4988 9.07408 14.1316 7.35049 15.28C5.40987 16.5738 4.17471 18.4174 3.77909 20.6121C3.68862 21.115 3.81143 21.6124 4.11612 21.9766C4.25431 22.1426 4.42784 22.2756 4.62401 22.3659C4.82019 22.4563 5.03406 22.5017 5.25002 22.4988H21.75C21.9661 22.5019 22.1801 22.4566 22.3765 22.3663C22.5728 22.2761 22.7465 22.1431 22.8849 21.9771C23.1886 21.6128 23.3114 21.1155 23.221 20.6125Z" fill="black"/>
<path d="M4.87512 13.4993V11.6243H6.75012C6.94903 11.6243 7.1398 11.5452 7.28045 11.4046C7.4211 11.2639 7.50012 11.0732 7.50012 10.8743C7.50012 10.6754 7.4211 10.4846 7.28045 10.3439C7.1398 10.2033 6.94903 10.1243 6.75012 10.1243H4.87512V8.24927C4.87512 8.05035 4.7961 7.85959 4.65545 7.71894C4.5148 7.57829 4.32403 7.49927 4.12512 7.49927C3.92621 7.49927 3.73544 7.57829 3.59479 7.71894C3.45414 7.85959 3.37512 8.05035 3.37512 8.24927V10.1243H1.50012C1.30121 10.1243 1.11044 10.2033 0.969792 10.3439C0.82914 10.4846 0.750122 10.6754 0.750122 10.8743C0.750122 11.0732 0.82914 11.2639 0.969792 11.4046C1.11044 11.5452 1.30121 11.6243 1.50012 11.6243H3.37512V13.4993C3.37512 13.6982 3.45414 13.8889 3.59479 14.0296C3.73544 14.1702 3.92621 14.2493 4.12512 14.2493C4.32403 14.2493 4.5148 14.1702 4.65545 14.0296C4.7961 13.8889 4.87512 13.6982 4.87512 13.4993Z" fill="black"/>
</g>
<defs>
<clipPath id="clip0">
<rect width="24" height="24" fill="white"/>
</clipPath>
</defs>
</svg>
