<svg width="24" height="24" viewBox="0 0 24 24" fill="none" xmlns="http://www.w3.org/2000/svg">
<path d="M18.0001 10.501V19.126C18.0001 19.3722 17.9516 19.616 17.8574 19.8435C17.7632 20.071 17.625 20.2777 17.4509 20.4518C17.2768 20.6259 17.0701 20.764 16.8426 20.8582C16.6152 20.9525 16.3713 21.001 16.1251 21.001H4.87512C4.37784 21.001 3.90093 20.8034 3.5493 20.4518C3.19767 20.1002 3.00012 19.6232 3.00012 19.126V7.87598C3.00012 7.37869 3.19767 6.90178 3.5493 6.55015C3.90093 6.19852 4.37784 6.00098 4.87512 6.00098H12.7257" stroke="black" stroke-width="1.5" stroke-linecap="round" stroke-linejoin="round"/>
<path d="M21.5598 2.49684C21.4913 2.42158 21.4082 2.36098 21.3157 2.31872C21.2231 2.27646 21.1229 2.2534 21.0212 2.25095C20.9194 2.2485 20.8183 2.2667 20.7237 2.30445C20.6292 2.3422 20.5434 2.39872 20.4713 2.47059L19.8915 3.04762C19.8212 3.11794 19.7817 3.21329 19.7817 3.3127C19.7817 3.41211 19.8212 3.50746 19.8915 3.57778L20.423 4.1084C20.4579 4.14341 20.4993 4.17119 20.5449 4.19014C20.5905 4.2091 20.6394 4.21885 20.6888 4.21885C20.7382 4.21885 20.7871 4.2091 20.8327 4.19014C20.8783 4.17119 20.9198 4.14341 20.9546 4.1084L21.5199 3.5459C21.8059 3.26043 21.8326 2.79543 21.5598 2.49684Z" fill="black"/>
<path d="M18.7191 4.22031L10.2572 12.6672C10.2059 12.7183 10.1686 12.7817 10.149 12.8514L9.75756 14.0172C9.74818 14.0488 9.74752 14.0824 9.75564 14.1144C9.76375 14.1463 9.78035 14.1755 9.80368 14.1989C9.82701 14.2222 9.85621 14.2388 9.88818 14.2469C9.92016 14.255 9.95374 14.2544 9.98537 14.245L11.1502 13.8536C11.2199 13.8339 11.2833 13.7966 11.3344 13.7453L19.7813 5.2825C19.8594 5.20352 19.9033 5.09689 19.9033 4.98578C19.9033 4.87467 19.8594 4.76805 19.7813 4.68906L19.3149 4.22031C19.2358 4.14145 19.1287 4.09717 19.017 4.09717C18.9053 4.09717 18.7982 4.14145 18.7191 4.22031Z" fill="black"/>
</svg>
