<svg width="24" height="24" viewBox="0 0 24 24" fill="none" xmlns="http://www.w3.org/2000/svg">
<path d="M21.5598 2.49684C21.4913 2.42158 21.4082 2.36098 21.3157 2.31872C21.2231 2.27646 21.1229 2.2534 21.0212 2.25095C20.9194 2.2485 20.8183 2.2667 20.7237 2.30445C20.6292 2.3422 20.5434 2.39872 20.4713 2.47059L19.8915 3.04762C19.8212 3.11794 19.7817 3.21329 19.7817 3.3127C19.7817 3.41211 19.8212 3.50746 19.8915 3.57778L20.423 4.1084C20.4579 4.14341 20.4993 4.17119 20.5449 4.19014C20.5905 4.2091 20.6394 4.21885 20.6888 4.21885C20.7382 4.21885 20.7871 4.2091 20.8327 4.19014C20.8783 4.17119 20.9198 4.14341 20.9546 4.1084L21.5199 3.5459C21.8059 3.26043 21.8326 2.79543 21.5598 2.49684Z" fill="black"/>
<path d="M18.7191 4.22031L10.2572 12.6672C10.2059 12.7183 10.1686 12.7817 10.149 12.8514L9.75756 14.0172C9.74818 14.0488 9.74752 14.0824 9.75564 14.1144C9.76375 14.1463 9.78035 14.1755 9.80368 14.1989C9.82701 14.2222 9.85621 14.2388 9.88818 14.2469C9.92016 14.255 9.95374 14.2544 9.98537 14.245L11.1502 13.8536C11.2199 13.8339 11.2833 13.7966 11.3344 13.7453L19.7813 5.2825C19.8594 5.20352 19.9033 5.09689 19.9033 4.98578C19.9033 4.87467 19.8594 4.76805 19.7813 4.68906L19.3149 4.22031C19.2358 4.14145 19.1287 4.09717 19.017 4.09717C18.9053 4.09717 18.7982 4.14145 18.7191 4.22031Z" fill="black"/>
<path d="M18.1097 9.0783L12.3961 14.8031C12.1753 15.0245 11.9039 15.1888 11.6053 15.2817L10.3912 15.6881C10.1031 15.7695 9.79851 15.7726 9.5088 15.697C9.21909 15.6215 8.95477 15.4701 8.74307 15.2584C8.53136 15.0467 8.37993 14.7823 8.30439 14.4926C8.22884 14.2029 8.23191 13.8983 8.31328 13.6102L8.71969 12.3961C8.81238 12.0977 8.97631 11.8263 9.19734 11.6053L14.9222 5.8908C14.9747 5.83838 15.0104 5.77158 15.0249 5.69884C15.0394 5.6261 15.032 5.5507 15.0037 5.48216C14.9753 5.41362 14.9273 5.35503 14.8657 5.31379C14.804 5.27255 14.7315 5.25052 14.6573 5.25049H4.875C4.17881 5.25049 3.51113 5.52705 3.01884 6.01933C2.52656 6.51162 2.25 7.17929 2.25 7.87549V19.1255C2.25 19.8217 2.52656 20.4894 3.01884 20.9816C3.51113 21.4739 4.17881 21.7505 4.875 21.7505H16.125C16.8212 21.7505 17.4889 21.4739 17.9812 20.9816C18.4734 20.4894 18.75 19.8217 18.75 19.1255V9.34314C18.75 9.26897 18.7279 9.19648 18.6867 9.13483C18.6455 9.07318 18.5869 9.02514 18.5183 8.99679C18.4498 8.96844 18.3744 8.96105 18.3016 8.97556C18.2289 8.99007 18.1621 9.02582 18.1097 9.0783Z" fill="black"/>
</svg>
