<svg width="20" height="20" viewBox="0 0 20 20" fill="none" xmlns="http://www.w3.org/2000/svg">
<g clip-path="url(#clip0)">
<path d="M18.4648 7.40283C17.8492 7.0122 17.0504 6.74697 16.1762 6.63955C15.9164 5.11221 15.2301 3.80674 14.1734 2.84033C13.0527 1.81494 11.5707 1.25049 10 1.25049C8.61914 1.25049 7.34375 1.6833 6.31367 2.50049C5.53197 3.12311 4.92288 3.93568 4.54453 4.86064C3.34648 5.02939 2.31797 5.43135 1.54805 6.03252C0.535156 6.82978 0 7.95205 0 9.28173C0 11.9145 2.18438 13.7505 5.3125 13.7505H9.375V8.12548H10.625V13.7505H15.4688C18.3063 13.7505 20 12.413 20 10.1724C20 8.99853 19.4691 8.04072 18.4648 7.40283Z" fill="black"/>
<path d="M9.37495 16.3848L7.49917 14.4934L6.61597 15.3918L9.99995 18.7512L13.3839 15.3918L12.5007 14.4934L10.625 16.3848V13.7512H9.37495V16.3848Z" fill="black"/>
</g>
<defs>
<clipPath id="clip0">
<rect width="20" height="20" fill="white"/>
</clipPath>
</defs>
</svg>
