<svg width="24" height="24" viewBox="0 0 24 24" fill="none" xmlns="http://www.w3.org/2000/svg">
<path d="M12.4275 2.81969C12.3747 2.75802 12.3092 2.70851 12.2354 2.67457C12.1617 2.64062 12.0814 2.62305 12.0002 2.62305C11.919 2.62305 11.8388 2.64062 11.7651 2.67457C11.6913 2.70851 11.6258 2.75802 11.573 2.81969C10.0889 4.55547 5.25 10.5564 5.25 15.0016C5.25 19.1439 7.85812 21.7516 12 21.7516C16.1419 21.7516 18.75 19.1439 18.75 15.0016C18.75 10.5564 13.9111 4.55547 12.4275 2.81969ZM12.75 19.3141C12.6599 19.3143 12.5711 19.2928 12.491 19.2515C12.4109 19.2102 12.3419 19.1503 12.2898 19.0768C12.2377 19.0033 12.2041 18.9184 12.1916 18.8291C12.1792 18.7399 12.1884 18.649 12.2184 18.5641C12.2568 18.4532 12.3291 18.3573 12.4252 18.29C12.5212 18.2227 12.636 18.1873 12.7533 18.1891C13.4978 18.1874 14.2114 17.891 14.7379 17.3645C15.2644 16.838 15.5609 16.1244 15.5625 15.3798C15.5608 15.2626 15.5961 15.1478 15.6634 15.0517C15.7308 14.9557 15.8267 14.8834 15.9375 14.845C16.0224 14.815 16.1133 14.8058 16.2026 14.8182C16.2918 14.8306 16.3768 14.8643 16.4503 14.9164C16.5238 14.9685 16.5837 15.0375 16.625 15.1176C16.6662 15.1976 16.6877 15.2865 16.6875 15.3766C16.6864 16.4205 16.2712 17.4214 15.533 18.1596C14.7948 18.8977 13.7939 19.3129 12.75 19.3141Z" fill="black"/>
</svg>
