<svg width="24" height="24" viewBox="0 0 24 24" fill="none" xmlns="http://www.w3.org/2000/svg">
<path d="M16.5 12.7495L9.00001 12.7495L9.00001 19.4995C9.00001 19.6984 9.07902 19.8892 9.21968 20.0298C9.36033 20.1705 9.55109 20.2495 9.75001 20.2495H21C21.1989 20.2495 21.3897 20.1705 21.5303 20.0298C21.671 19.8892 21.75 19.6984 21.75 19.4995L21.75 4.49952C21.75 4.3006 21.671 4.10984 21.5303 3.96919C21.3897 3.82853 21.1989 3.74952 21 3.74952H9.75001C9.55109 3.74952 9.36033 3.82853 9.21968 3.96919C9.07902 4.10984 9.00001 4.3006 9.00001 4.49952V11.2495L16.5 11.2495V12.7495Z" fill="black"/>
<path d="M2.46985 12.5299L6.75 16.8105L7.81078 15.7498L4.81078 12.7498H9V11.2498H4.81078L7.81078 8.24977L6.75 7.18899L2.46985 11.4696C2.3293 11.6102 2.25035 11.8009 2.25035 11.9998C2.25035 12.1986 2.3293 12.3893 2.46985 12.5299Z" fill="black"/>
</svg>
