<svg width="24" height="25" viewBox="0 0 24 25" fill="none" xmlns="http://www.w3.org/2000/svg">
<path d="M23.5836 12.2998C23.5836 11.3105 23.5034 10.5885 23.3296 9.83984H12.0325V14.3052H18.6636C18.53 15.4149 17.8081 17.086 16.2037 18.209L16.1812 18.3585L19.7532 21.1257L20.0006 21.1504C22.2734 19.0513 23.5836 15.963 23.5836 12.2998Z" fill="#4285F4"/>
<path d="M12.0325 24.0648C15.2812 24.0648 18.0085 22.9952 20.0006 21.1503L16.2037 18.2089C15.1876 18.9175 13.8239 19.4122 12.0325 19.4122C8.85058 19.4122 6.14998 17.3133 5.18729 14.4121L5.04618 14.4241L1.33202 17.2985L1.28345 17.4335C3.2621 21.3641 7.32641 24.0648 12.0325 24.0648Z" fill="#34A853"/>
<path d="M5.18728 14.4121C4.93326 13.6634 4.78626 12.8612 4.78626 12.0323C4.78626 11.2034 4.93326 10.4012 5.17391 9.65256L5.16718 9.49311L1.40648 6.57251L1.28343 6.63104C0.467934 8.26212 0 10.0938 0 12.0323C0 13.9709 0.467934 15.8024 1.28343 17.4335L5.18728 14.4121Z" fill="#FBBC05"/>
<path d="M12.0328 4.65252C14.2922 4.65252 15.8163 5.62848 16.6854 6.44407L20.0812 3.12844C17.9956 1.18988 15.2816 0 12.0328 0C7.32677 0 3.26246 2.7006 1.28381 6.63117L5.17429 9.6527C6.15035 6.75154 8.85094 4.65252 12.0328 4.65252Z" fill="#EB4335"/>
</svg>
