<svg width="36" height="36" viewBox="0 0 36 36" fill="none" xmlns="http://www.w3.org/2000/svg">
<path d="M30.1216 5.61443C26.7833 2.36443 22.3654 0.500366 17.9998 0.500366C13.6341 0.500366 9.21616 2.36443 5.87788 5.61443C2.40991 8.99021 0.499756 13.391 0.499756 18.0004C0.499756 20.084 1.18335 22.773 3.06851 27.8089C4.95366 32.8449 8.70288 34.9535 10.2865 35.298C10.7404 35.3972 11.2724 35.5004 11.7498 35.5004C12.5723 35.501 13.3805 35.2855 14.0935 34.8754L15.1873 34.2504C16.3646 33.5613 16.7083 32.0527 16.031 30.8636L9.24038 18.9441C9.07857 18.6589 8.86177 18.4086 8.60255 18.2078C8.34333 18.0069 8.04684 17.8595 7.73025 17.774C7.41365 17.6886 7.08325 17.6668 6.75818 17.7099C6.43311 17.7531 6.11982 17.8603 5.83647 18.0254L4.76694 18.6504C4.35588 18.8912 3.98651 19.1969 3.67319 19.5558C3.6343 19.6015 3.58311 19.6349 3.52571 19.6523C3.46832 19.6696 3.40715 19.6701 3.3495 19.6536C3.29185 19.6371 3.24015 19.6044 3.20058 19.5594C3.16101 19.5143 3.13523 19.4589 3.12632 19.3996C3.04757 18.9372 3.00525 18.4694 2.99976 18.0004C2.99976 14.0699 4.64038 10.3066 7.62163 7.40583C10.4998 4.60583 14.2802 3.00037 17.9998 3.00037C21.7193 3.00037 25.4998 4.60583 28.3779 7.40583C31.3591 10.3066 32.9997 14.0699 32.9997 18.0004C32.9927 18.4695 32.9488 18.9373 32.8685 19.3996C32.8596 19.4589 32.8338 19.5143 32.7942 19.5594C32.7547 19.6044 32.703 19.6371 32.6453 19.6536C32.5877 19.6701 32.5265 19.6696 32.4691 19.6523C32.4117 19.6349 32.3605 19.6015 32.3216 19.5558C32.0083 19.1969 31.6389 18.8912 31.2279 18.6504L30.1583 18.0254C29.875 17.8603 29.5617 17.7531 29.2366 17.7099C28.9116 17.6668 28.5812 17.6886 28.2646 17.774C27.948 17.8595 27.6515 18.0069 27.3923 18.2078C27.133 18.4086 26.9162 18.6589 26.7544 18.9441L19.9685 30.8636C19.2912 32.0527 19.6349 33.5613 20.8123 34.2504L21.906 34.8754C22.619 35.2855 23.4272 35.501 24.2498 35.5004C24.7271 35.5004 25.2591 35.3972 25.713 35.298C27.2966 34.9535 31.0466 32.8441 32.931 27.8089C34.8154 22.7738 35.4997 20.084 35.4997 18.0004C35.4997 13.391 33.5896 8.99021 30.1216 5.61443Z" fill="black"/>
</svg>
