<svg width="26" height="26" viewBox="0 0 26 26" fill="none" xmlns="http://www.w3.org/2000/svg">
<path d="M13.0009 22.7505C12.6748 22.7501 12.3563 22.6515 12.0869 22.4676C8.09597 19.7585 6.36788 17.9009 5.41472 16.7395C3.38347 14.2639 2.41101 11.7223 2.43843 8.96998C2.47042 5.81596 5.00085 3.25049 8.07921 3.25049C10.3176 3.25049 11.868 4.51139 12.7709 5.56154C12.7995 5.59447 12.8348 5.62088 12.8745 5.63898C12.9142 5.65707 12.9573 5.66644 13.0009 5.66644C13.0445 5.66644 13.0877 5.65707 13.1273 5.63898C13.167 5.62088 13.2024 5.59447 13.231 5.56154C14.1339 4.51037 15.6842 3.25049 17.9226 3.25049C21.001 3.25049 23.5314 5.81596 23.5634 8.97049C23.5909 11.7233 22.6174 14.2649 20.5871 16.74C19.634 17.9014 17.9059 19.759 13.915 22.4681C13.6455 22.6518 13.327 22.7502 13.0009 22.7505Z" fill="black"/>
</svg>
