<svg width="22" height="20" viewBox="0 0 22 20" fill="none" xmlns="http://www.w3.org/2000/svg">
<path d="M11.0009 19.7505C10.6748 19.7501 10.3563 19.6515 10.0869 19.4676C6.09597 16.7585 4.36788 14.9009 3.41472 13.7395C1.38347 11.2639 0.411008 8.72232 0.43843 5.96998C0.470422 2.81596 3.00085 0.250488 6.07921 0.250488C8.31765 0.250488 9.868 1.51139 10.7709 2.56154C10.7995 2.59447 10.8348 2.62088 10.8745 2.63898C10.9142 2.65707 10.9573 2.66644 11.0009 2.66644C11.0445 2.66644 11.0877 2.65707 11.1273 2.63898C11.167 2.62088 11.2024 2.59447 11.231 2.56154C12.1339 1.51037 13.6842 0.250488 15.9226 0.250488C19.001 0.250488 21.5314 2.81596 21.5634 5.97049C21.5909 8.72334 20.6174 11.2649 18.5871 13.74C17.634 14.9014 15.9059 16.759 11.915 19.4681C11.6455 19.6518 11.327 19.7502 11.0009 19.7505V19.7505Z" fill="black"/>
</svg>
