<svg width="24" height="24" viewBox="0 0 24 24" fill="none" xmlns="http://www.w3.org/2000/svg">
<g clip-path="url(#clip0)">
<path d="M12.2444 4.76501L12.2444 4.765C12.179 4.70241 12.092 4.66748 12.0014 4.66748C11.9109 4.66748 11.8238 4.70241 11.7584 4.765L11.7584 4.76501L3.12872 13.0089L12.2444 4.76501ZM12.2444 4.76501L20.8708 13.0089C20.9052 13.0418 20.9325 13.0813 20.9512 13.125C20.9698 13.1687 20.9794 13.2158 20.9794 13.2633V21.0006C20.9794 21.3922 20.8238 21.7677 20.5469 22.0446C20.27 22.3215 19.8944 22.4771 19.5028 22.4771H15C14.8073 22.4771 14.6225 22.4006 14.4863 22.2643C14.35 22.1281 14.2734 21.9432 14.2734 21.7506V15.3756C14.2734 15.2699 14.2315 15.1685 14.1568 15.0938C14.082 15.0191 13.9807 14.9771 13.875 14.9771H10.125C10.0193 14.9771 9.918 15.0191 9.84328 15.0938C9.76855 15.1685 9.72658 15.2699 9.72658 15.3756V21.7506C9.72658 21.9432 9.65003 22.1281 9.51377 22.2643C9.37751 22.4006 9.19271 22.4771 9.00002 22.4771H4.49533C4.10372 22.4771 3.72815 22.3215 3.45124 22.0446C3.17433 21.7677 3.01877 21.3922 3.01877 21.0006L3.02017 13.2634L3.02017 13.2633M12.2444 4.76501L3.02017 13.2633M3.02017 13.2633C3.02012 13.2158 3.02971 13.1687 3.04837 13.125C3.06702 13.0813 3.09435 13.0418 3.12871 13.0089L3.02017 13.2633Z" fill="black" stroke="black" stroke-width="0.046875"/>
<path d="M19.4823 8.09162V8.10163L19.4895 8.10855L22.9958 11.4629L23.012 11.446L22.9958 11.4629C23.2865 11.7409 23.309 12.2182 23.0307 12.5064L23.0476 12.5227L23.0307 12.5064C22.8972 12.6449 22.7142 12.7247 22.5219 12.7284C22.3296 12.7322 22.1437 12.6595 22.0049 12.5264L22.0049 12.5264L12.2774 3.23203C12.2774 3.23202 12.2774 3.23202 12.2774 3.23202C12.2032 3.16109 12.1046 3.12151 12.002 3.12151C11.8994 3.12151 11.8007 3.16109 11.7266 3.23202C11.7266 3.23202 11.7265 3.23202 11.7265 3.23203L2 12.5264L1.99995 12.5264C1.92888 12.5947 1.84465 12.6479 1.75239 12.6826C1.66014 12.7173 1.56178 12.7329 1.46331 12.7284C1.36484 12.7239 1.26832 12.6994 1.17962 12.6564C1.09091 12.6134 1.01189 12.5528 0.947344 12.4783L0.947305 12.4783C0.690826 12.1837 0.725433 11.7352 1.00866 11.462C1.00868 11.462 1.00869 11.4619 1.00871 11.4619L10.979 1.92293L10.979 1.92294L10.9794 1.92246C11.2285 1.67014 11.5991 1.5249 12.0006 1.5249C12.4034 1.5249 12.775 1.67016 13.0241 1.92201L13.024 1.92201L13.0245 1.92247L15.7395 4.5184L15.7792 4.5563V4.50146V3.00146C15.7792 2.80877 15.8557 2.62396 15.992 2.48771C16.1282 2.35145 16.313 2.2749 16.5057 2.2749H18.7557C18.9484 2.2749 19.1332 2.35145 19.2695 2.48771C19.4057 2.62396 19.4823 2.80877 19.4823 3.00146V8.09162Z" fill="black" stroke="black" stroke-width="0.046875"/>
</g>
<defs>
<clipPath id="clip0">
<rect width="24" height="24" fill="white"/>
</clipPath>
</defs>
</svg>
