<svg width="26" height="26" viewBox="0 0 26 26" fill="none" xmlns="http://www.w3.org/2000/svg">
<path d="M21.1251 4.06323H4.87512C3.52893 4.06323 2.43762 5.15454 2.43762 6.50073V19.5007C2.43762 20.8469 3.52893 21.9382 4.87512 21.9382H21.1251C22.4713 21.9382 23.5626 20.8469 23.5626 19.5007V6.50073C23.5626 5.15454 22.4713 4.06323 21.1251 4.06323Z" stroke="black" stroke-width="1.5" stroke-linejoin="round"/>
<path d="M17.0626 10.5625C17.9601 10.5625 18.6876 9.83496 18.6876 8.9375C18.6876 8.04004 17.9601 7.3125 17.0626 7.3125C16.1652 7.3125 15.4376 8.04004 15.4376 8.9375C15.4376 9.83496 16.1652 10.5625 17.0626 10.5625Z" stroke="black" stroke-width="1.5" stroke-miterlimit="10"/>
<path d="M15.4376 17.0512L10.8338 12.456C10.5408 12.1632 10.1471 11.9932 9.73301 11.9809C9.31893 11.9687 8.91581 12.115 8.60602 12.39L2.43762 17.8744" stroke="black" stroke-width="1.5" stroke-linecap="round" stroke-linejoin="round"/>
<path d="M11.375 21.9377L17.6384 15.6744C17.9248 15.3874 18.3082 15.2178 18.7133 15.199C19.1183 15.1802 19.5158 15.3135 19.8275 15.5728L23.5625 18.6877" stroke="black" stroke-width="1.5" stroke-linecap="round" stroke-linejoin="round"/>
</svg>
