<svg width="26" height="26" viewBox="0 0 26 26" fill="none" xmlns="http://www.w3.org/2000/svg">
<path d="M21.125 3.24902H4.875C4.01333 3.24996 3.18723 3.59268 2.57794 4.20197C1.96865 4.81125 1.62594 5.63736 1.625 6.49902V19.499C1.62594 20.3607 1.96865 21.1868 2.57794 21.7961C3.18723 22.4054 4.01333 22.7481 4.875 22.749H21.125C21.9867 22.7481 22.8128 22.4054 23.4221 21.7961C24.0313 21.1868 24.3741 20.3607 24.375 19.499V6.49902C24.3741 5.63736 24.0313 4.81125 23.4221 4.20197C22.8128 3.59268 21.9867 3.24996 21.125 3.24902V3.24902ZM17.0625 6.49902C17.5446 6.49902 18.0159 6.64198 18.4167 6.90982C18.8175 7.17765 19.13 7.55834 19.3145 8.00373C19.4989 8.44913 19.5472 8.93923 19.4532 9.41205C19.3591 9.88488 19.127 10.3192 18.7861 10.6601C18.4452 11.001 18.0109 11.2331 17.538 11.3272C17.0652 11.4212 16.5751 11.373 16.1297 11.1885C15.6843 11.004 15.3036 10.6916 15.0358 10.2907C14.768 9.88988 14.625 9.41861 14.625 8.93652C14.6257 8.29026 14.8827 7.67067 15.3397 7.21369C15.7966 6.75672 16.4162 6.49969 17.0625 6.49902V6.49902ZM4.875 21.124C4.44402 21.124 4.0307 20.9528 3.72595 20.6481C3.4212 20.3433 3.25 19.93 3.25 19.499V16.0647L8.06609 11.7838C8.53076 11.3717 9.13507 11.1523 9.75591 11.1702C10.3767 11.1881 10.9674 11.4421 11.4075 11.8803L14.7057 15.1714L8.75316 21.124H4.875ZM22.75 19.499C22.75 19.93 22.5788 20.3433 22.274 20.6481C21.9693 20.9528 21.556 21.124 21.125 21.124H11.0515L17.2174 14.9582C17.6539 14.5869 18.2079 14.3824 18.781 14.3809C19.354 14.3794 19.9091 14.5811 20.3475 14.95L22.75 16.9518V19.499Z" fill="black"/>
</svg>
