<?xml version="1.0" encoding="utf-8"?><svg version="1.1" id="Layer_1" xmlns="http://www.w3.org/2000/svg" xmlns:xlink="http://www.w3.org/1999/xlink" x="0px" y="0px" width="122.88px" height="121.203px" viewBox="0 0 122.88 121.203" enable-background="new 0 0 122.88 121.203" xml:space="preserve"><g><path fill-rule="evenodd" clip-rule="evenodd" d="M82.299,60.756l40.581,41.111v19.336h-19.2v-14.535H87.771v-15.91H72.546 L68.145,76.42c-7.01,4.674-15.514,7.412-24.678,7.412C19.466,83.832,0,65.063,0,41.916S19.466,0,43.467,0 c24.002,0,43.465,18.77,43.465,41.916C86.932,48.692,85.261,55.091,82.299,60.756L82.299,60.756z M37.22,28.487 c4.283,0,7.76,3.474,7.76,7.76c0,4.286-3.477,7.76-7.76,7.76c-4.286,0-7.76-3.474-7.76-7.76 C29.459,31.961,32.934,28.487,37.22,28.487L37.22,28.487z"/></g></svg>