<svg width="26" height="26" viewBox="0 0 26 26" fill="none" xmlns="http://www.w3.org/2000/svg">
<path d="M24.5689 1.6472C24.3766 1.60148 24.1743 1.62616 23.9986 1.71677L22.7499 2.34037L21.4906 1.71068C21.3777 1.65428 21.2534 1.62491 21.1272 1.62491C21.0011 1.62491 20.8767 1.65428 20.7639 1.71068L19.4888 2.34088L18.2304 1.71068C18.1173 1.65386 17.9924 1.62428 17.8658 1.62428C17.7392 1.62428 17.6143 1.65386 17.5012 1.71068L16.2499 2.33884L15.0083 1.7122C14.8955 1.655 14.7709 1.62493 14.6443 1.6244C14.5178 1.62387 14.3929 1.6529 14.2796 1.70916L12.9999 2.34138L11.7406 1.71017C11.6276 1.6538 11.503 1.62445 11.3767 1.62445C11.2504 1.62445 11.1259 1.6538 11.0129 1.71017L9.74994 2.34037L8.48854 1.71017C8.32592 1.62866 8.14065 1.60407 7.9624 1.64034C7.78416 1.67662 7.62324 1.77166 7.50541 1.91025C7.37842 2.06161 7.30995 2.25351 7.31244 2.45107V14.6244L7.31498 14.6269H17.0624C17.4934 14.6269 17.9067 14.7981 18.2115 15.1028C18.5162 15.4076 18.6874 15.8209 18.6874 16.2519V21.5306C18.6874 23.1013 20.3668 24.3743 21.9374 24.3743H22.5468C23.2471 24.3743 23.9188 24.0961 24.414 23.6009C24.9092 23.1057 25.1874 22.4341 25.1874 21.7337V2.43685C25.1876 2.255 25.1267 2.07835 25.0146 1.93519C24.9024 1.79203 24.7455 1.69062 24.5689 1.6472ZM21.1249 12.1869H14.6503C14.2116 12.1869 13.8328 11.8497 13.8135 11.4109C13.8085 11.3013 13.8258 11.1918 13.8644 11.089C13.9029 10.9862 13.9619 10.8923 14.0378 10.813C14.1136 10.7336 14.2047 10.6705 14.3056 10.6273C14.4066 10.5841 14.5152 10.5619 14.6249 10.5619H21.0995C21.5383 10.5619 21.9171 10.899 21.9364 11.3378C21.9414 11.4474 21.924 11.557 21.8855 11.6597C21.8469 11.7625 21.788 11.8564 21.7121 11.9357C21.6363 12.0151 21.5452 12.0782 21.4442 12.1214C21.3433 12.1646 21.2347 12.1868 21.1249 12.1869ZM21.1249 8.12435H11.4003C10.9616 8.12435 10.5828 7.78716 10.5635 7.34841C10.5585 7.23876 10.5758 7.12925 10.6144 7.02648C10.6529 6.92371 10.7119 6.82982 10.7878 6.75047C10.8636 6.67112 10.9547 6.60796 11.0556 6.5648C11.1566 6.52164 11.2652 6.49938 11.3749 6.49935H21.0995C21.5383 6.49935 21.9171 6.83654 21.9364 7.27529C21.9414 7.38494 21.924 7.49445 21.8855 7.59722C21.8469 7.69999 21.788 7.79388 21.7121 7.87323C21.6363 7.95258 21.5452 8.01574 21.4442 8.0589C21.3433 8.10206 21.2347 8.12433 21.1249 8.12435Z" fill="black"/>
<path d="M17.0626 21.5312V17.0625C17.0626 16.847 16.977 16.6403 16.8246 16.488C16.6723 16.3356 16.4656 16.25 16.2501 16.25H2.43762C2.00662 16.2513 1.59369 16.4233 1.28916 16.7283C0.98463 17.0333 0.813291 17.4465 0.812622 17.8775C0.812622 20.4445 1.10614 21.512 1.54692 22.3245C2.29493 23.7042 3.64926 24.375 5.68762 24.375H18.1636C18.2036 24.375 18.2428 24.3632 18.2762 24.341C18.3096 24.3188 18.3356 24.2873 18.3511 24.2503C18.3666 24.2133 18.3708 24.1726 18.3631 24.1333C18.3555 24.0939 18.3364 24.0577 18.3083 24.0292C17.8279 23.5473 17.0626 22.9023 17.0626 21.5312Z" fill="black"/>
</svg>
