<svg width="24" height="24" viewBox="0 0 24 24" fill="none" xmlns="http://www.w3.org/2000/svg">
<path d="M22.2761 9.68087C21.7914 7.4004 20.5061 5.32477 18.6564 3.83649C16.7649 2.32305 14.4142 1.49905 11.9917 1.50025C9.13611 1.50025 6.46892 2.6004 4.47486 4.59821C2.54783 6.53134 1.49173 9.08368 1.50017 11.7832C1.50024 13.7624 2.08129 15.6981 3.17127 17.3501L3.37517 17.6337L2.25017 22.5002L7.63142 21.1615C7.63142 21.1615 7.73923 21.1976 7.81892 21.228C7.89861 21.2585 8.58439 21.5215 9.31189 21.7249C9.91657 21.8937 11.1747 22.1468 12.1605 22.1468C14.9566 22.1468 17.5675 21.064 19.5119 19.0971C21.4389 17.1457 22.5002 14.5512 22.5002 11.7888C22.5003 11.0802 22.4252 10.3736 22.2761 9.68087ZM7.50017 13.5002C7.2035 13.5002 6.91349 13.4123 6.66681 13.2474C6.42014 13.0826 6.22788 12.8484 6.11435 12.5743C6.00082 12.3002 5.97111 11.9986 6.02899 11.7076C6.08687 11.4166 6.22973 11.1494 6.43951 10.9396C6.64929 10.7298 6.91656 10.5869 7.20753 10.5291C7.4985 10.4712 7.8001 10.5009 8.07419 10.6144C8.34828 10.728 8.58255 10.9202 8.74737 11.1669C8.91219 11.4136 9.00017 11.7036 9.00017 12.0002C9.00017 12.3981 8.84213 12.7796 8.56083 13.0609C8.27952 13.3422 7.89799 13.5002 7.50017 13.5002ZM12.0002 13.5002C11.7035 13.5002 11.4135 13.4123 11.1668 13.2474C10.9201 13.0826 10.7279 12.8484 10.6143 12.5743C10.5008 12.3002 10.4711 11.9986 10.529 11.7076C10.5869 11.4166 10.7297 11.1494 10.9395 10.9396C11.1493 10.7298 11.4166 10.5869 11.7075 10.5291C11.9985 10.4712 12.3001 10.5009 12.5742 10.6144C12.8483 10.728 13.0825 10.9202 13.2474 11.1669C13.4122 11.4136 13.5002 11.7036 13.5002 12.0002C13.5002 12.3981 13.3421 12.7796 13.0608 13.0609C12.7795 13.3422 12.398 13.5002 12.0002 13.5002ZM16.5002 13.5002C16.2035 13.5002 15.9135 13.4123 15.6668 13.2474C15.4201 13.0826 15.2279 12.8484 15.1143 12.5743C15.0008 12.3002 14.9711 11.9986 15.029 11.7076C15.0869 11.4166 15.2297 11.1494 15.4395 10.9396C15.6493 10.7298 15.9166 10.5869 16.2075 10.5291C16.4985 10.4712 16.8001 10.5009 17.0742 10.6144C17.3483 10.728 17.5825 10.9202 17.7474 11.1669C17.9122 11.4136 18.0002 11.7036 18.0002 12.0002C18.0002 12.3981 17.8421 12.7796 17.5608 13.0609C17.2795 13.3422 16.898 13.5002 16.5002 13.5002Z" fill="black"/>
</svg>
