<svg width="24" height="24" viewBox="0 0 24 24" fill="none" xmlns="http://www.w3.org/2000/svg">
<path d="M20.131 1.50153C19.0248 1.80762 10.4959 4.25825 8.38695 4.84981C8.34773 4.8608 8.31316 4.88427 8.28846 4.91666C8.26377 4.94906 8.25029 4.98861 8.25007 5.02934V16.6075C8.25013 16.6269 8.24416 16.6458 8.23299 16.6617C8.22183 16.6775 8.20601 16.6896 8.18773 16.696L6.88226 17.1437C5.99164 17.4925 3.75008 17.9256 3.75008 19.9182C3.75008 21.5842 4.90461 22.3342 5.89976 22.4626C6.02068 22.4843 6.14306 22.4968 6.26586 22.5001C6.61133 22.5001 7.97117 22.1682 8.76429 21.6526C9.75007 21.01 9.75007 20.9982 9.75007 19.3107V9.46699C9.75007 9.42481 9.77914 9.42762 9.81945 9.41684L18.6319 6.98309C18.6461 6.97918 18.6611 6.97866 18.6755 6.98159C18.6899 6.98451 18.7034 6.9908 18.715 6.99992C18.7265 7.00905 18.7358 7.02077 18.742 7.03414C18.7481 7.0475 18.7511 7.06213 18.7505 7.07684V14.3678C18.7505 14.3873 18.7443 14.4064 18.7329 14.4223C18.7215 14.4382 18.7053 14.4501 18.6868 14.4564C18.2696 14.597 17.7854 14.7611 17.4455 14.8839C16.0027 15.4051 14.2501 15.7318 14.2501 17.6232C14.2501 19.4284 15.5748 20.1817 16.4204 20.2403C16.7543 20.2656 17.0901 20.2498 17.4202 20.1934C17.8421 20.1287 18.5494 19.9168 19.208 19.4968C20.2501 18.8321 20.2501 18.819 20.2501 16.8732V1.592C20.2501 1.57751 20.2468 1.56321 20.2403 1.55022C20.2339 1.53724 20.2246 1.52592 20.213 1.51715C20.2015 1.50839 20.1881 1.50241 20.1739 1.4997C20.1596 1.49699 20.145 1.49762 20.131 1.50153Z" fill="black"/>
</svg>
