<svg width="24" height="24" viewBox="0 0 24 24" fill="none" xmlns="http://www.w3.org/2000/svg">
<path d="M9.00006 10.2188V9.93759C9.00006 9.24196 9.46881 8.67196 10.1363 8.50368L18.3202 6.31556C18.4589 6.27844 18.6043 6.27368 18.7451 6.30164C18.8859 6.32959 19.0185 6.38952 19.1325 6.4768C19.2465 6.56408 19.3389 6.67638 19.4026 6.80503C19.4664 6.93369 19.4997 7.07526 19.5001 7.21884V8.25009" stroke="black" stroke-width="1.5" stroke-linecap="round" stroke-linejoin="round"/>
<path d="M19.5 13.87V17.62C19.5 18.2721 19.0814 18.8196 18.4687 19.0263L17.4375 19.4013C16.2234 19.81 15 18.9128 15 17.62C14.9972 17.2879 15.1002 16.9636 15.294 16.6939C15.4878 16.4242 15.7624 16.2232 16.0781 16.12L18.4687 15.2692C19.0814 15.063 19.5 14.5221 19.5 13.87ZM19.5 13.87V2.71659C19.4997 2.64482 19.4829 2.57409 19.4509 2.50985C19.4189 2.4456 19.3726 2.38956 19.3155 2.34603C19.2585 2.30251 19.1922 2.27267 19.1217 2.25882C19.0513 2.24496 18.9787 2.24746 18.9094 2.26612L9.5625 4.77909C9.39948 4.82513 9.25611 4.92349 9.15447 5.05901C9.05283 5.19453 8.99855 5.3597 9 5.52909V16.1228C9 16.7749 8.5814 17.3228 7.96875 17.5291L5.53125 18.3728C4.88062 18.5922 4.5 19.18 4.5 19.8728C4.5 21.1656 5.74312 22.0549 6.9375 21.6541L7.96875 21.2791C8.5814 21.0728 9 20.5253 9 19.8728V16.1228" stroke="black" stroke-width="1.5" stroke-linecap="round" stroke-linejoin="round"/>
</svg>
