<svg width="20" height="20" viewBox="0 0 20 20" fill="none" xmlns="http://www.w3.org/2000/svg">
<path d="M16.8749 17.5004C16.7928 17.5005 16.7115 17.4844 16.6357 17.4529C16.5599 17.4215 16.491 17.3754 16.4331 17.3172L2.68312 3.56717C2.57086 3.44901 2.5092 3.29166 2.51128 3.12869C2.51337 2.96571 2.57904 2.81 2.69429 2.69475C2.80954 2.5795 2.96525 2.51383 3.12823 2.51174C3.2912 2.50965 3.44855 2.57131 3.56671 2.68358L17.3167 16.4336C17.4041 16.521 17.4635 16.6323 17.4876 16.7535C17.5117 16.8747 17.4993 17.0003 17.4521 17.1145C17.4048 17.2287 17.3247 17.3263 17.222 17.3949C17.1193 17.4636 16.9985 17.5003 16.8749 17.5004Z" fill="black"/>
<path d="M9.68743 12.3374L7.66439 10.3143C7.65279 10.3028 7.63789 10.2952 7.62177 10.2926C7.60565 10.2901 7.58913 10.2926 7.57452 10.2999C7.55991 10.3071 7.54795 10.3188 7.54031 10.3333C7.53268 10.3477 7.52976 10.3641 7.53196 10.3803C7.61364 10.9052 7.86008 11.3905 8.23567 11.7661C8.61127 12.1417 9.09656 12.3881 9.62142 12.4698C9.63759 12.472 9.65405 12.4691 9.66849 12.4614C9.68292 12.4538 9.69459 12.4418 9.70188 12.4272C9.70916 12.4126 9.71169 12.3961 9.7091 12.38C9.7065 12.3638 9.69893 12.3489 9.68743 12.3374Z" fill="black"/>
<path d="M10.3124 7.66198L12.3386 9.68737C12.3501 9.69902 12.3651 9.70674 12.3813 9.70942C12.3975 9.7121 12.4141 9.70961 12.4288 9.70231C12.4435 9.695 12.4555 9.68324 12.4632 9.66871C12.4708 9.65418 12.4737 9.63761 12.4714 9.62135C12.3899 9.09578 12.1433 8.60978 11.7672 8.23371C11.3912 7.85764 10.9052 7.61102 10.3796 7.52955C10.3633 7.52704 10.3467 7.52974 10.332 7.53726C10.3174 7.54478 10.3055 7.55673 10.298 7.57142C10.2906 7.5861 10.2879 7.60277 10.2905 7.61903C10.2931 7.63529 10.3008 7.65032 10.3124 7.66198Z" fill="black"/>
<path d="M19.1795 10.6778C19.3089 10.4748 19.3772 10.239 19.3765 9.99834C19.3759 9.75766 19.3061 9.52224 19.1756 9.32001C18.142 7.72157 16.801 6.36376 15.2979 5.39305C13.6327 4.31805 11.7967 3.74969 9.98736 3.74969C9.03349 3.751 8.08611 3.90653 7.18189 4.21024C7.15658 4.21866 7.13385 4.23341 7.11586 4.2531C7.09787 4.27279 7.08521 4.29676 7.0791 4.32272C7.073 4.34868 7.07363 4.37577 7.08096 4.40142C7.08828 4.42706 7.10205 4.45041 7.12095 4.46923L8.96626 6.31454C8.98543 6.33374 9.00927 6.34762 9.03544 6.35482C9.0616 6.36201 9.08919 6.36226 9.11548 6.35555C9.74097 6.20312 10.3952 6.21429 11.0151 6.38799C11.635 6.56168 12.1998 6.89205 12.655 7.34728C13.1102 7.80251 13.4406 8.36727 13.6143 8.98719C13.788 9.60711 13.7992 10.2613 13.6467 10.8868C13.6401 10.913 13.6404 10.9405 13.6476 10.9666C13.6548 10.9927 13.6686 11.0165 13.6877 11.0356L16.342 13.6919C16.3697 13.7195 16.4066 13.7359 16.4457 13.7376C16.4847 13.7393 16.523 13.7264 16.553 13.7013C17.5747 12.8304 18.4601 11.8112 19.1795 10.6778Z" fill="black"/>
<path d="M9.99987 13.7501C9.43219 13.7501 8.87192 13.6212 8.36129 13.3732C7.85066 13.1252 7.403 12.7645 7.05206 12.3183C6.70113 11.8721 6.45608 11.352 6.33539 10.7973C6.2147 10.2426 6.22152 9.66776 6.35534 9.11608C6.36198 9.08984 6.36169 9.06233 6.3545 9.03624C6.34731 9.01015 6.33347 8.98638 6.31433 8.96725L3.70339 6.35514C3.6757 6.32742 3.63862 6.31112 3.59948 6.30945C3.56034 6.30779 3.522 6.32089 3.49206 6.34616C2.53933 7.15905 1.65613 8.14811 0.848704 9.30397C0.70737 9.50682 0.629532 9.74711 0.62508 9.99431C0.620629 10.2415 0.689765 10.4844 0.823704 10.6922C1.85534 12.3067 3.18269 13.6665 4.66277 14.6239C6.33034 15.7032 8.12175 16.2501 9.98737 16.2501C10.9509 16.2475 11.9081 16.0953 12.8249 15.7989C12.8504 15.7907 12.8734 15.7761 12.8917 15.7565C12.9099 15.7369 12.9229 15.7129 12.9292 15.6869C12.9355 15.6608 12.935 15.6336 12.9277 15.6078C12.9205 15.582 12.9067 15.5585 12.8878 15.5395L11.0335 13.6856C11.0143 13.6665 10.9906 13.6526 10.9645 13.6454C10.9384 13.6382 10.9109 13.638 10.8846 13.6446C10.595 13.7148 10.2979 13.7502 9.99987 13.7501Z" fill="black"/>
</svg>
