<svg width="20" height="20" viewBox="0 0 20 20" fill="none" xmlns="http://www.w3.org/2000/svg">
<path d="M9.99988 12.4998C11.3806 12.4998 12.4999 11.3805 12.4999 9.9998C12.4999 8.61909 11.3806 7.4998 9.99988 7.4998C8.61917 7.4998 7.49988 8.61909 7.49988 9.9998C7.49988 11.3805 8.61917 12.4998 9.99988 12.4998Z" fill="black"/>
<path d="M19.1734 9.32022C18.1398 7.72178 16.7988 6.36397 15.2956 5.39327C13.6327 4.31827 11.7968 3.74991 9.98664 3.74991C8.32571 3.74991 6.6925 4.22452 5.13235 5.16045C3.54133 6.11475 2.09992 7.50889 0.847971 9.30381C0.706637 9.50667 0.628799 9.74696 0.624348 9.99415C0.619896 10.2413 0.689033 10.4843 0.822971 10.6921C1.85461 12.3065 3.18235 13.6663 4.66203 14.6237C6.32805 15.703 8.12102 16.2499 9.98664 16.2499C11.8113 16.2499 13.6511 15.6862 15.307 14.6202C16.8093 13.6526 18.1476 12.2897 19.1773 10.678C19.3066 10.4751 19.375 10.2392 19.3743 9.99855C19.3736 9.75788 19.3039 9.52245 19.1734 9.32022ZM9.99992 13.7499C9.25824 13.7499 8.53322 13.53 7.91654 13.1179C7.29985 12.7059 6.8192 12.1202 6.53538 11.435C6.25155 10.7497 6.17728 9.99575 6.32198 9.26832C6.46667 8.54089 6.82383 7.8727 7.34827 7.34826C7.87272 6.82381 8.54091 6.46666 9.26834 6.32196C9.99576 6.17727 10.7498 6.25153 11.435 6.53536C12.1202 6.81919 12.7059 7.29983 13.1179 7.91652C13.53 8.5332 13.7499 9.25823 13.7499 9.99991C13.7488 10.9941 13.3533 11.9473 12.6503 12.6503C11.9473 13.3533 10.9941 13.7488 9.99992 13.7499Z" fill="black"/>
</svg>
