<svg width="35" height="35" viewBox="0 0 35 35" fill="none" xmlns="http://www.w3.org/2000/svg">
<path d="M17.5001 3.27991C9.65997 3.27991 3.28136 9.65852 3.28136 17.4987C3.28136 25.3388 9.65997 31.7174 17.5001 31.7174C25.3402 31.7174 31.7189 25.3388 31.7189 17.4987C31.7189 9.65852 25.3402 3.27991 17.5001 3.27991ZM15.3126 21.8737C15.3126 22.1637 15.1974 22.4419 14.9923 22.6471C14.7871 22.8522 14.5089 22.9674 14.2189 22.9674C13.9288 22.9674 13.6506 22.8522 13.4455 22.6471C13.2403 22.4419 13.1251 22.1637 13.1251 21.8737V13.1237C13.1251 12.8336 13.2403 12.5554 13.4455 12.3503C13.6506 12.1451 13.9288 12.0299 14.2189 12.0299C14.5089 12.0299 14.7871 12.1451 14.9923 12.3503C15.1974 12.5554 15.3126 12.8336 15.3126 13.1237V21.8737ZM21.8751 21.8737C21.8751 22.1637 21.7599 22.4419 21.5548 22.6471C21.3496 22.8522 21.0714 22.9674 20.7814 22.9674C20.4913 22.9674 20.2131 22.8522 20.008 22.6471C19.8028 22.4419 19.6876 22.1637 19.6876 21.8737V13.1237C19.6876 12.8336 19.8028 12.5554 20.008 12.3503C20.2131 12.1451 20.4913 12.0299 20.7814 12.0299C21.0714 12.0299 21.3496 12.1451 21.5548 12.3503C21.7599 12.5554 21.8751 12.8336 21.8751 13.1237V21.8737Z" fill="black"/>
</svg>
