<svg width="26" height="26" viewBox="0 0 26 26" fill="none" xmlns="http://www.w3.org/2000/svg">
<path d="M16.8918 3.27896C15.9036 2.21205 14.5234 1.62451 12.9999 1.62451C11.4684 1.62451 10.0836 2.2085 9.09993 3.26881C8.10563 4.3408 7.62118 5.79771 7.73493 7.37092C7.9604 10.4747 10.3222 12.9995 12.9999 12.9995C15.6776 12.9995 18.0354 10.4752 18.2644 7.37193C18.3797 5.81295 17.8922 4.35908 16.8918 3.27896Z" fill="black"/>
<path d="M21.9374 24.3735H4.06242C3.82846 24.3766 3.59675 24.3274 3.38417 24.2297C3.17159 24.1319 2.98348 23.988 2.83352 23.8083C2.50344 23.4138 2.37039 22.875 2.46891 22.3301C2.8975 19.9525 4.23508 17.9553 6.33742 16.5532C8.20516 15.3086 10.5711 14.6235 12.9999 14.6235C15.4288 14.6235 17.7947 15.3091 19.6624 16.5532C21.7648 17.9548 23.1023 19.952 23.5309 22.3296C23.6294 22.8745 23.4964 23.4133 23.1663 23.8078C23.0164 23.9875 22.8283 24.1316 22.6157 24.2294C22.4032 24.3273 22.1714 24.3765 21.9374 24.3735Z" fill="black"/>
</svg>
