<svg width="35" height="35" viewBox="0 0 35 35" fill="none" xmlns="http://www.w3.org/2000/svg">
<path d="M17.5 3.28113C9.65983 3.28113 3.28122 9.65974 3.28122 17.4999C3.28122 25.34 9.65983 31.7186 17.5 31.7186C25.3401 31.7186 31.7187 25.34 31.7187 17.4999C31.7187 9.65974 25.3401 3.28113 17.5 3.28113ZM22.6112 18.1356L14.7875 22.862C14.6753 22.9292 14.5473 22.9653 14.4166 22.9667C14.2859 22.9681 14.1571 22.9347 14.0436 22.8699C13.93 22.8051 13.8358 22.7113 13.7704 22.5981C13.7051 22.4849 13.6711 22.3563 13.6718 22.2256V12.7742C13.6711 12.6435 13.7051 12.5149 13.7704 12.4017C13.8358 12.2884 13.93 12.1946 14.0436 12.1298C14.1571 12.0651 14.2859 12.0316 14.4166 12.033C14.5473 12.0344 14.6753 12.0706 14.7875 12.1378L22.6112 16.8641C22.7203 16.9306 22.8104 17.024 22.8729 17.1353C22.9355 17.2466 22.9683 17.3722 22.9683 17.4999C22.9683 17.6276 22.9355 17.7531 22.8729 17.8645C22.8104 17.9758 22.7203 18.0692 22.6112 18.1356V18.1356Z" fill="black"/>
</svg>
