<svg width="24" height="24" viewBox="0 0 24 24" fill="none" xmlns="http://www.w3.org/2000/svg">
<path d="M17.25 1.5H6.75C5.95462 1.50087 5.19206 1.81722 4.62964 2.37964C4.06722 2.94206 3.75087 3.70462 3.75 4.5V19.5C3.75087 20.2954 4.06722 21.0579 4.62964 21.6203C5.19206 22.1828 5.95462 22.4991 6.75 22.5H17.25C18.0454 22.4991 18.8079 22.1828 19.3704 21.6203C19.9328 21.0579 20.2491 20.2954 20.25 19.5V4.5C20.2491 3.70462 19.9328 2.94206 19.3704 2.37964C18.8079 1.81722 18.0454 1.50087 17.25 1.5ZM12 14.25H8.25C8.05109 14.25 7.86032 14.171 7.71967 14.0303C7.57902 13.8897 7.5 13.6989 7.5 13.5C7.5 13.3011 7.57902 13.1103 7.71967 12.9697C7.86032 12.829 8.05109 12.75 8.25 12.75H12C12.1989 12.75 12.3897 12.829 12.5303 12.9697C12.671 13.1103 12.75 13.3011 12.75 13.5C12.75 13.6989 12.671 13.8897 12.5303 14.0303C12.3897 14.171 12.1989 14.25 12 14.25ZM15.75 10.5H8.25C8.05109 10.5 7.86032 10.421 7.71967 10.2803C7.57902 10.1397 7.5 9.94891 7.5 9.75C7.5 9.55108 7.57902 9.36032 7.71967 9.21967C7.86032 9.07901 8.05109 9 8.25 9H15.75C15.9489 9 16.1397 9.07901 16.2803 9.21967C16.421 9.36032 16.5 9.55108 16.5 9.75C16.5 9.94891 16.421 10.1397 16.2803 10.2803C16.1397 10.421 15.9489 10.5 15.75 10.5ZM15.75 6.75H8.25C8.05109 6.75 7.86032 6.67098 7.71967 6.53033C7.57902 6.38968 7.5 6.19891 7.5 6C7.5 5.80108 7.57902 5.61032 7.71967 5.46967C7.86032 5.32902 8.05109 5.25 8.25 5.25H15.75C15.9489 5.25 16.1397 5.32902 16.2803 5.46967C16.421 5.61032 16.5 5.80108 16.5 6C16.5 6.19891 16.421 6.38968 16.2803 6.53033C16.1397 6.67098 15.9489 6.75 15.75 6.75Z" fill="black"/>
</svg>
