<svg width="24" height="24" viewBox="0 0 24 24" fill="none" xmlns="http://www.w3.org/2000/svg">
<path d="M21.7508 20.0643L15.9346 14.2471C16.8719 12.9591 17.3761 11.4067 17.3746 9.8137C17.3746 5.64417 13.9823 2.25183 9.81273 2.25183C5.6432 2.25183 2.25085 5.64417 2.25085 9.8137C2.25085 13.9832 5.6432 17.3756 9.81273 17.3756C11.4057 17.3771 12.9581 16.8729 14.2462 15.9356L20.0633 21.7518L21.7508 20.0643ZM9.81273 14.9873C8.78935 14.9874 7.78894 14.684 6.938 14.1155C6.08705 13.547 5.42381 12.7389 5.03214 11.7935C4.64047 10.848 4.53797 9.80765 4.73759 8.80394C4.93722 7.80023 5.43001 6.87825 6.15364 6.15462C6.87728 5.43099 7.79925 4.9382 8.80296 4.73857C9.80668 4.53894 10.847 4.64144 11.7925 5.03312C12.738 5.42479 13.546 6.08803 14.1145 6.93897C14.683 7.78991 14.9864 8.79033 14.9863 9.8137C14.9847 11.1853 14.4391 12.5003 13.4692 13.4702C12.4993 14.4401 11.1844 14.9857 9.81273 14.9873Z" fill="black"/>
</svg>
