<svg width="16" height="18" viewBox="0 0 16 18" fill="none" xmlns="http://www.w3.org/2000/svg">
<path d="M13.0001 12.1244C12.6634 12.1243 12.3301 12.1924 12.0205 12.3247C11.7109 12.457 11.4312 12.6506 11.1985 12.894L5.41728 9.64123C5.52927 9.22069 5.52927 8.77817 5.41728 8.35764L11.1985 5.1049C11.6195 5.54136 12.1852 5.80936 12.7896 5.85868C13.394 5.90801 13.9956 5.73528 14.4818 5.37285C14.968 5.01042 15.3053 4.48316 15.4307 3.88985C15.556 3.29654 15.4607 2.67789 15.1627 2.14979C14.8646 1.6217 14.3842 1.22039 13.8115 1.02106C13.2388 0.821727 12.6131 0.838044 12.0515 1.06695C11.49 1.29586 11.0312 1.72166 10.761 2.26457C10.4909 2.80748 10.428 3.43026 10.5841 4.01623L4.80283 7.26896C4.4575 6.9089 4.01233 6.66039 3.5246 6.55541C3.03687 6.45043 2.52889 6.49377 2.06599 6.67987C1.6031 6.86597 1.20648 7.18631 0.92714 7.59967C0.647804 8.01304 0.498535 8.50053 0.498535 8.99943C0.498535 9.49833 0.647804 9.98582 0.92714 10.3992C1.20648 10.8126 1.6031 11.1329 2.06599 11.319C2.52889 11.5051 3.03687 11.5484 3.5246 11.4435C4.01233 11.3385 4.4575 11.09 4.80283 10.7299L10.5841 13.9826C10.45 14.4873 10.4774 15.0212 10.6622 15.5095C10.8471 15.9978 11.1802 16.416 11.6148 16.7054C12.0494 16.9948 12.5637 17.1408 13.0856 17.123C13.6074 17.1052 14.1106 16.9244 14.5244 16.6061C14.9383 16.2878 15.2421 15.8479 15.3933 15.3481C15.5444 14.8483 15.5353 14.3137 15.3671 13.8194C15.199 13.3251 14.8803 12.8958 14.4558 12.5918C14.0313 12.2878 13.5222 12.1244 13.0001 12.1244Z" fill="black"/>
</svg>
