<svg width="24" height="24" viewBox="0 0 24 24" fill="none" xmlns="http://www.w3.org/2000/svg">
<g clip-path="url(#clip0)">
<path d="M18.4687 22.4995C18.3109 22.5001 18.1568 22.4509 18.0286 22.3589L12 17.9882L5.97139 22.3589C5.84259 22.4523 5.68742 22.5023 5.52831 22.5017C5.36921 22.5012 5.21441 22.45 5.08629 22.3556C4.95818 22.2613 4.86339 22.1286 4.81563 21.9769C4.76787 21.8251 4.76961 21.6621 4.8206 21.5114L7.17185 14.5471L1.07811 10.3682C0.946112 10.2778 0.846491 10.1476 0.793797 9.9965C0.741103 9.84543 0.7381 9.68148 0.785225 9.52858C0.83235 9.37569 0.927135 9.24187 1.05573 9.14668C1.18432 9.05149 1.33999 8.99991 1.49998 8.99949H9.01779L11.2865 2.01746C11.3354 1.86672 11.4308 1.73534 11.5589 1.64215C11.6871 1.54897 11.8415 1.49878 12 1.49878C12.1584 1.49878 12.3128 1.54897 12.441 1.64215C12.5692 1.73534 12.6645 1.86672 12.7134 2.01746L14.9822 9.00184H22.5C22.6602 9.00176 22.8162 9.05297 22.9452 9.14798C23.0741 9.24299 23.1693 9.37679 23.2167 9.52981C23.2641 9.68282 23.2613 9.84699 23.2087 9.99829C23.156 10.1496 23.0563 10.2801 22.9242 10.3706L16.8281 14.5471L19.1779 21.5095C19.216 21.6222 19.2267 21.7424 19.2092 21.86C19.1916 21.9777 19.1464 22.0895 19.0771 22.1863C19.0078 22.283 18.9165 22.3618 18.8107 22.4163C18.7049 22.4708 18.5877 22.4993 18.4687 22.4995Z" fill="black"/>
</g>
<defs>
<clipPath id="clip0">
<rect width="24" height="24" fill="white"/>
</clipPath>
</defs>
</svg>
